<svg width="20" height="23" viewBox="0 0 20 23" fill="none" xmlns="http://www.w3.org/2000/svg">
<path d="M18.365 8.42483L11.0224 1.58568C10.4464 1.04917 9.55363 1.04917 8.97764 1.58568L1.63504 8.42483C1.08972 8.93277 0.999998 9.76402 1.42436 10.3766L8.76695 20.9761C9.36347 21.8372 10.6365 21.8372 11.233 20.9761L18.5756 10.3766C19 9.76402 18.9103 8.93277 18.365 8.42483Z" fill="#EBB64F" stroke="black" stroke-width="2"/>
<mask id="mask0_2179_6796" style="mask-type:alpha" maskUnits="userSpaceOnUse" x="2" y="2" width="16" height="19">
<path d="M9.65921 2.31742C9.85121 2.13859 10.1488 2.13859 10.3408 2.31742L17.6834 9.15658C17.8652 9.32589 17.8951 9.60298 17.7536 9.80718L10.411 20.4067C10.2122 20.6937 9.78782 20.6937 9.58898 20.4067L2.24639 9.80718C2.10494 9.60298 2.13485 9.32589 2.31662 9.15658L9.65921 2.31742Z" fill="#EBB64F"/>
</mask>
<g mask="url(#mask0_2179_6796)">
<path opacity="0.25" d="M10 2L2 9.45149L10 21V2Z" fill="white"/>
<path opacity="0.5" d="M10 2L18 9.45149L10 7.61195L2 9.45149L10 2Z" fill="white"/>
</g>
</svg>
