<svg width="512" height="512" viewBox="0 0 512 512" fill="none" xmlns="http://www.w3.org/2000/svg">
<path fill-rule="evenodd" clip-rule="evenodd" d="M458.7 122.75L474.49 165.63L464.07 204.39L418 380.53C412.744 400.837 400.473 418.63 383.36 430.76L271.74 506.56C267.356 510.066 261.909 511.976 256.295 511.976C250.681 511.976 245.234 510.066 240.85 506.56L129.17 430.87C112.086 418.699 99.8078 400.926 94.47 380.64L38 165.92L53.73 123.08L42.26 97.52C41.7085 96.2826 41.5433 94.9077 41.786 93.5749C42.0286 92.2421 42.6678 91.0136 43.62 90.05L74.19 59.3C80.6251 52.7353 88.7989 48.142 97.7525 46.059C106.706 43.976 116.068 44.4898 124.74 47.54L132.85 50.41L178.4 0.61L256.25 0L334.09 0.43L379.69 49.83L387.88 46.94C396.497 43.9226 405.794 43.4166 414.687 45.481C423.58 47.5454 431.704 52.0952 438.11 58.6L468 88.78C469.19 89.9914 469.988 91.5326 470.292 93.2035C470.595 94.8743 470.389 96.5977 469.7 98.15L458.7 122.75ZM259.89 314.03C263.004 314.904 266.049 316.007 269 317.33L282.84 323L298.53 330.19L323.89 342.99C324.818 343.269 325.64 343.823 326.247 344.579C326.854 345.334 327.219 346.255 327.292 347.222C327.366 348.188 327.145 349.154 326.659 349.993C326.173 350.831 325.445 351.503 324.57 351.92L302.51 367.71L288.91 378.48L263.52 400.66C261.699 402.168 259.409 402.994 257.045 402.994C254.681 402.994 252.391 402.168 250.57 400.66L244.68 395.46L231.68 384.09L225.47 378.74C221.103 374.9 216.587 371.313 211.92 367.98L189.86 352.49C188.978 352.075 188.241 351.403 187.747 350.562C187.253 349.721 187.025 348.751 187.092 347.778C187.159 346.805 187.518 345.875 188.123 345.11C188.727 344.345 189.549 343.78 190.48 343.49L215.88 330.25L231.48 323.07L245.29 317.33C248.242 316.009 251.287 314.906 254.4 314.03H259.89ZM426.2 172.9L425.4 175.2V175.18C424.976 176.624 424.462 178.04 423.86 179.42L412.56 192.42L362.33 245.87C360.667 247.819 359.554 250.176 359.105 252.699C358.657 255.221 358.89 257.818 359.78 260.22L368.04 279.71C369.9 284.86 370.037 290.475 368.43 295.71L366.78 300.23C364.092 307.586 359.47 314.081 353.4 319.03L345.5 325.48C343.456 326.966 341.066 327.908 338.558 328.216C336.049 328.524 333.503 328.188 331.16 327.24L303.1 313.89C297.953 311.322 293.135 308.143 288.75 304.42L266.26 284.15L266.11 284.01C265.245 283.195 264.55 282.216 264.066 281.131C263.581 280.045 263.316 278.875 263.287 277.687C263.257 276.498 263.463 275.316 263.892 274.208C264.322 273.1 264.967 272.088 265.79 271.23L316.45 237C318.372 235.635 319.74 233.625 320.305 231.337C320.87 229.048 320.595 226.633 319.53 224.53L299.84 187.58C297.584 183.014 297.224 177.74 298.84 172.91C301.258 168.333 305.209 164.751 310 162.79L371.63 139.46C376.09 137.78 375.83 136.02 371.09 135.58L334.89 132.21C329.213 131.847 323.514 132.353 317.99 133.71L286.49 142.54C284.256 143.217 282.343 144.679 281.104 146.657C279.865 148.635 279.384 150.995 279.75 153.3L292.2 220.89C293.034 224.63 293.246 228.481 292.83 232.29C292.3 233.91 288.12 236.14 283.48 237.14L266.22 241.14C260.647 242.17 254.933 242.17 249.36 241.14L230.17 237.14C225.54 236.01 221.31 234.02 220.81 232.41C220.382 228.599 220.588 224.744 221.42 221L233.79 153.39C234.16 151.084 233.681 148.723 232.441 146.744C231.202 144.765 229.286 143.303 227.05 142.63L195.55 133.83C190.026 132.473 184.327 131.967 178.65 132.33L142.45 135.92C137.74 136.2 137.5 138.2 141.94 139.8L203.58 163C208.368 164.973 212.323 168.546 214.77 173.11C215.575 175.501 215.901 178.027 215.729 180.544C215.557 183.062 214.892 185.52 213.77 187.78L194.11 224.73C193.049 226.831 192.777 229.244 193.344 231.529C193.911 233.813 195.279 235.819 197.2 237.18L247.96 271.33C248.791 272.203 249.44 273.232 249.87 274.359C250.299 275.485 250.499 276.685 250.46 277.89C250.412 279.097 250.122 280.282 249.607 281.375C249.091 282.468 248.361 283.446 247.46 284.25L225 304.52C220.613 308.257 215.783 311.441 210.62 314L182.56 327.43C180.217 328.375 177.673 328.713 175.164 328.412C172.655 328.112 170.263 327.182 168.21 325.71L160.32 319.28C154.254 314.342 149.629 307.862 146.93 300.52L145.29 296C143.68 290.766 143.817 285.15 145.68 280L154.11 260.54C155.007 258.14 155.244 255.544 154.796 253.021C154.347 250.499 153.23 248.143 151.56 246.2L101.33 192.81L89.9999 179.81C89.4686 178.394 89.031 176.944 88.6899 175.47L87.8899 173.17C87.9426 168.654 88.5949 164.164 89.8299 159.82L96.6099 148.51L111 127.45C114.207 122.697 117.587 118.07 121.14 113.57L140.34 89.57C142.089 87.2223 143.994 84.994 146.04 82.9H146.44L154.98 84.48L197.2 92.48C201.475 92.6671 205.747 92.0427 209.79 90.64L233 83.1L249.65 78.46C254.527 77.95 259.443 77.95 264.32 78.46L280.93 83.05L304.14 90.55C308.18 91.9623 312.454 92.5869 316.73 92.39L359 84.25L367.54 82.67H367.94C369.978 84.7714 371.882 86.9991 373.64 89.34L392.87 113.34L403.09 127.22L417.44 148.28C420.774 153.083 423.524 158.266 425.63 163.72C426.05 166.761 426.24 169.83 426.2 172.9Z" fill="white"/>
</svg>
