<svg width="305" height="305" viewBox="0 0 305 305" fill="none" xmlns="http://www.w3.org/2000/svg">
<g clip-path="url(#clip0_2280_12368)">
<path d="M95.5059 152.511C95.5059 183.937 121.073 209.502 152.5 209.502C183.925 209.502 209.49 183.936 209.49 152.511C209.49 121.085 183.925 95.518 152.5 95.518C121.073 95.518 95.5059 121.085 95.5059 152.511Z" fill="white"/>
<path d="M283.733 77.281C284.177 76.5 284.169 75.541 283.71 74.768C270.435 52.41 251.543 33.682 229.077 20.609C205.922 7.13402 179.441 0.0120239 152.5 0.0120239C105.875 0.0120239 62.4231 20.936 33.2851 57.419C32.6421 58.223 32.5581 59.338 33.0731 60.229L76.0031 134.584C76.4531 135.364 77.2831 135.834 78.1671 135.834C78.2791 135.834 78.3931 135.826 78.5061 135.811C79.5121 135.674 80.3351 134.942 80.5891 133.959C89.0541 101.16 118.625 78.253 152.5 78.253C154.602 78.253 156.773 78.349 158.955 78.535C159.026 78.542 159.098 78.545 159.169 78.545H281.56C282.459 78.545 283.289 78.063 283.733 77.281Z" fill="white"/>
<path d="M175.035 224.936C174.414 224.133 173.372 223.788 172.389 224.06C165.932 225.858 159.241 226.769 152.5 226.769C123.859 226.769 97.462 209.971 85.249 183.975C85.219 183.911 85.186 183.849 85.151 183.787L23.911 77.719C23.465 76.944 22.639 76.469 21.746 76.469C21.742 76.469 21.737 76.469 21.733 76.469C20.835 76.474 20.008 76.959 19.568 77.741C6.767 100.456 0 126.311 0 152.511C0 189.266 13.26 224.769 37.337 252.48C61.175 279.915 93.993 297.97 129.748 303.32C129.872 303.339 129.996 303.347 130.119 303.347C131.002 303.347 131.832 302.877 132.283 302.097L175.224 227.719C175.732 226.839 175.657 225.739 175.035 224.936Z" fill="white"/>
<path d="M292.175 95.226H206.201C205.185 95.226 204.27 95.841 203.887 96.781C203.503 97.721 203.726 98.801 204.451 99.511C218.836 113.613 226.758 132.435 226.758 152.511C226.758 167.709 222.172 182.335 213.495 194.809C213.455 194.867 213.418 194.926 213.383 194.987L152.037 301.239C151.588 302.017 151.591 302.976 152.044 303.752C152.493 304.519 153.315 304.989 154.202 304.989C154.211 304.989 154.221 304.989 154.23 304.989C194.6 304.539 232.483 288.478 260.899 259.767C289.338 231.032 305 192.941 305 152.511C305 133.294 301.468 114.555 294.502 96.813C294.126 95.855 293.203 95.226 292.175 95.226Z" fill="white"/>
</g>
<defs>
<clipPath id="clip0_2280_12368">
<rect width="305" height="305" fill="white"/>
</clipPath>
</defs>
</svg>
