<svg width="512" height="512" viewBox="0 0 512 512" fill="none" xmlns="http://www.w3.org/2000/svg">
<path d="M255.5 15C123.5 15 15.5 123 15.5 255C15.5 387 123.5 495 255.5 495C340.9 495 416.3 449.8 458.8 382.1C459.613 380.814 459.976 379.293 459.832 377.778C459.688 376.263 459.044 374.839 458.003 373.729C456.962 372.619 455.581 371.886 454.079 371.646C452.576 371.405 451.036 371.671 449.7 372.4C443.849 375.835 437.688 378.714 431.3 381C394.5 393.6 374.2 394.1 349.2 393C321.3 391.8 287.3 382.2 263.4 368C239.5 353.8 219.9 333.4 209.3 315.7C198.7 298 192.3 275.8 195.2 247.4C198.1 218.4 224.6 194.8 255.6 194.8C289.1 194.8 316.4 221.4 316.4 254.9C316.4 271.9 308.3 286.6 297.9 298.4C295.6 300.5 290.3 308.1 303.7 318.4C319.6 330.6 355.3 336.4 383.6 335C411.9 333.6 442.7 322.4 463.8 300.2C480.6 282.5 495.6 254.1 495.6 222.8C495.5 97.7 379.5 15 255.5 15Z" fill="white"/>
</svg>
