<svg width="32" height="32" viewBox="0 0 32 32" fill="none" xmlns="http://www.w3.org/2000/svg">
<g clip-path="url(#clip0_2280_12403)">
<path d="M11.8069 9.77603C11.8179 9.77603 11.8119 9.77603 11.8069 9.77603V9.77603ZM8.10895 7.92703C8.11995 7.92703 8.11395 7.92703 8.10895 7.92703V7.92703ZM30.2289 10.781C29.5619 9.17703 28.2079 7.44803 27.1499 6.89603C28.0149 8.58803 28.5149 10.292 28.7019 11.557L28.7069 11.584C26.9679 7.25503 24.0259 5.51103 21.6189 1.71303C21.4989 1.52103 21.3789 1.32803 21.2589 1.12503C21.1959 1.02103 21.1439 0.917029 21.0869 0.806029C20.9879 0.614029 20.9159 0.411029 20.8629 0.197029C20.8629 0.177029 20.8479 0.161029 20.8269 0.156029C20.8159 0.156029 20.8059 0.156029 20.7959 0.156029L20.7909 0.161029C20.7859 0.161029 20.7799 0.166029 20.7799 0.166029C20.7799 0.166029 20.7799 0.161029 20.7849 0.155029C17.3679 2.15503 15.9569 5.66003 15.5919 7.88403C14.5349 7.94703 13.5039 8.21203 12.5509 8.66003C12.3679 8.75303 12.2859 8.96303 12.3539 9.14903C12.4309 9.36203 12.6709 9.46803 12.8789 9.37303C13.7119 8.98203 14.6079 8.74803 15.5299 8.68603L15.6189 8.67503C15.7439 8.67003 15.8739 8.66403 15.9989 8.66403C16.7439 8.65903 17.4879 8.76303 18.2019 8.97103L18.3269 9.00803C18.4469 9.04403 18.5619 9.08503 18.6819 9.12803C18.7649 9.15903 18.8539 9.19103 18.9369 9.22703C19.0049 9.25203 19.0729 9.28403 19.1399 9.31003C19.2449 9.35803 19.3489 9.41003 19.4529 9.46203L19.5929 9.52903C19.6969 9.58203 19.7969 9.63803 19.8959 9.69603C19.9589 9.73303 20.0209 9.76903 20.0829 9.81103C21.1939 10.499 22.1199 11.452 22.7659 12.587C21.9489 12.015 20.4789 11.442 19.0689 11.692C24.5889 14.452 23.1049 23.957 15.4539 23.597C14.7709 23.572 14.0989 23.441 13.4589 23.212C13.3029 23.155 13.1509 23.092 13.0059 23.029C12.9179 22.988 12.8289 22.946 12.7459 22.905C10.8699 21.936 9.32295 20.102 9.13095 17.878C9.13095 17.878 9.83895 15.238 14.2029 15.238C14.6779 15.238 16.0269 13.919 16.0519 13.539C16.0409 13.414 13.3689 12.352 12.3279 11.326C11.7709 10.779 11.5109 10.514 11.2759 10.315C11.1509 10.206 11.0159 10.107 10.8749 10.014C10.5269 8.79003 10.5109 7.49303 10.8339 6.26303C9.25495 6.98203 8.03094 8.11803 7.14094 9.11803H7.13195C6.52295 8.34703 6.56895 5.80503 6.59995 5.27403C6.59495 5.23803 6.14695 5.50303 6.08895 5.54503C5.55295 5.93003 5.04795 6.35803 4.58895 6.83203C4.06395 7.36303 3.58495 7.93603 3.15195 8.55103C2.16795 9.94703 1.46495 11.53 1.09495 13.196C1.08995 13.217 0.949945 13.843 0.845945 14.613C0.824945 14.733 0.808945 14.853 0.793945 14.972C0.750945 15.264 0.720945 15.561 0.704945 15.853L0.699945 15.9C0.690945 16.072 0.679945 16.239 0.668945 16.411V16.488C0.668945 24.968 7.54395 31.843 16.0239 31.843C23.6169 31.843 29.9239 26.327 31.1589 19.087C31.1859 18.89 31.2059 18.692 31.2269 18.494C31.5339 15.863 31.1959 13.093 30.2319 10.781H30.2289Z" fill="white"/>
</g>
<defs>
<clipPath id="clip0_2280_12403">
<rect width="32" height="32" fill="white"/>
</clipPath>
</defs>
</svg>
