<svg width="64" height="64" viewBox="0 0 64 64" fill="none" xmlns="http://www.w3.org/2000/svg">
<g clip-path="url(#clip0_2280_12393)">
<path fill-rule="evenodd" clip-rule="evenodd" d="M32 64C49.6731 64 64 49.6731 64 32C64 14.3269 49.6731 0 32 0C14.3276 0 0.00109328 14.3258 6.25696e-08 31.998C6.25696e-08 31.9987 0 31.9993 0 32C0 49.6704 14.3225 63.9956 31.9919 64C31.9946 64 31.9973 64 32 64ZM43.1799 6.32109L43.1194 6.29478L42.3313 5.96766L42.255 5.93748L39.9595 11.4804L40.8831 11.8642L43.1799 6.32109ZM39.685 5.0678L39.6475 5.05713L38.776 7.9289L39.7316 8.2206L40.6032 5.3481L39.685 5.0678ZM36.78 10.5167L37.9515 4.63382L37.9285 4.62885L37.1875 4.47961C37.1157 4.46615 37.0438 4.45297 36.9717 4.44006L35.8008 10.3206L36.78 10.5167ZM47.9883 9.01062C47.7145 8.81984 47.4372 8.63383 47.1563 8.45271L43.8265 13.4305L44.6627 13.982L47.9883 9.01062ZM47.4984 12.3416L49.3838 10.0485C49.646 10.2565 49.9045 10.4691 50.159 10.6861L48.2744 12.9782L47.4984 12.3416ZM49.876 13.4081L51.4551 11.8629C51.8969 12.2899 52.3247 12.7312 52.7378 13.1863C52.5445 12.9764 52.3484 12.7685 52.1521 12.5612L50.5871 14.1262L36.0004 36.0017L14.1238 50.5897L12.5561 52.1479C12.0138 51.6244 11.4926 51.0792 10.9938 50.5137C11.2725 50.8243 11.5598 51.1317 11.8477 51.4365L13.4127 49.8715L27.9993 27.995L49.876 13.4081ZM51.0171 15.749L53.3237 13.8525C53.3876 13.9275 53.4511 14.0029 53.5142 14.0786L53.788 14.4122L53.7832 14.4061C53.8428 14.4798 53.902 14.5538 53.9609 14.6281L51.6537 16.525L51.0171 15.749ZM50.025 19.3609L55.0028 16.0309C55.0883 16.1538 55.1728 16.2775 55.2564 16.4018L55.2991 16.4656C55.3867 16.5967 55.4732 16.7285 55.5586 16.8612L50.573 20.1971L50.025 19.3609ZM53.8199 19.7766L56.4597 18.3616C56.622 18.6521 56.7793 18.9458 56.9315 19.2426L54.2911 20.6566L53.8199 19.7766ZM59.8129 28.7603C59.6481 27.3208 59.3713 25.8992 58.9865 24.5083C59.3998 26.0003 59.6927 27.5424 59.854 29.1234C59.8593 29.1814 59.865 29.2392 59.8713 29.2976C59.886 29.4512 59.8995 29.6052 59.9117 29.7596L56.9252 30.0583L56.8259 29.0591L59.8129 28.7603ZM53.9995 31.5123H59.9958C59.9986 31.6745 60 31.8371 60 32C60 32.1713 59.9985 32.3422 59.9954 32.5127L53.9995 32.5115V31.5123ZM56.9251 33.9761L59.9098 34.2641C59.883 34.5989 59.8503 34.932 59.8119 35.2634L56.8259 34.9753L56.9251 33.9761ZM52.5196 39.9572L58.0633 42.2531C57.7202 43.1245 57.3347 43.9745 56.9093 44.8006C57.1818 44.2682 57.4381 43.7262 57.6787 43.1758L52.1357 40.8808L52.5196 39.9572ZM50.5624 43.8266L55.5447 47.1603C55.364 47.4403 55.1785 47.717 54.9882 47.9901L50.0144 44.6628L50.5624 43.8266ZM51.6526 47.4762L53.9598 49.3732C53.8956 49.4543 53.8309 49.535 53.7658 49.6154C53.7018 49.6897 53.6423 49.7639 53.583 49.8377L53.5602 49.8661C53.4816 49.9608 53.4025 50.055 53.3227 50.1487L51.016 48.2522L51.6526 47.4762ZM47.9143 47.2164L52.1449 51.447C51.9119 51.6883 51.6745 51.9255 51.433 52.1583L47.2033 47.9286L47.9143 47.2164ZM48.251 51.0172L50.1417 53.3286C50.0637 53.395 49.9854 53.461 49.9067 53.5265L49.599 53.7791C49.5236 53.8401 49.4479 53.9007 49.3718 53.9609L47.475 51.6538L48.251 51.0172ZM44.6391 50.0251L47.969 55.0028C47.8705 55.0713 47.7716 55.1392 47.6722 55.2065C47.5779 55.269 47.4831 55.3321 47.3889 55.3957C47.3058 55.4504 47.2225 55.5047 47.1388 55.5586L43.8029 50.5731L44.6391 50.0251ZM45.6301 56.4551C45.969 56.2669 46.3054 56.075 46.6361 55.8748C42.976 58.1234 38.7592 59.5539 34.2405 59.9117L33.9418 56.9252L34.941 56.826L35.2398 59.813C35.8268 59.7445 36.402 59.656 36.9784 59.5532L35.8079 53.6759L36.7883 53.4799L37.9576 59.3595C38.5316 59.2355 39.0914 59.089 39.6513 58.9295L38.7784 56.0595L39.734 55.7677L40.6068 58.6402L39.6725 58.926C40.5525 58.6756 41.41 58.3815 42.2521 58.052L39.9596 52.5173L40.8832 52.1333L43.1769 57.6693C43.7119 57.4378 44.2317 57.1886 44.7489 56.924L43.3352 54.2842L44.2152 53.8129L45.6301 56.4551ZM32.4878 53.9996V59.9958C32.3255 59.9986 32.1629 60 32 60C31.8288 60 31.6579 59.9985 31.4874 59.9954V53.9996H32.4878ZM30.024 56.9252L29.736 59.9098C29.4012 59.883 29.0681 59.8503 28.7367 59.8119L29.0248 56.826L30.024 56.9252ZM20.1734 50.5625L16.8398 55.5448C16.7943 55.5154 16.7488 55.4859 16.7035 55.4563C16.7358 55.4766 16.768 55.4965 16.8002 55.5161L16.1246 55.0637C16.1755 55.1004 16.2263 55.1365 16.2769 55.1719C16.193 55.1149 16.1094 55.0574 16.0261 54.9994L19.3372 50.0145L20.1734 50.5625ZM16.525 51.655L14.6288 53.9614C14.551 53.8998 14.4735 53.8377 14.3963 53.7753L14.1885 53.6054C14.076 53.5126 13.9642 53.4188 13.8532 53.3243L15.749 51.0184L16.525 51.655ZM12.9827 48.2475L10.6745 50.1453C10.5994 50.0572 10.525 49.9687 10.451 49.8797C10.4155 49.8354 10.3798 49.7925 10.344 49.7496L10.3964 49.8138L10.3182 49.7186L10.3422 49.7474L10.223 49.6016C10.1607 49.5246 10.0989 49.4473 10.0374 49.3697L12.3461 47.4715L12.9827 48.2475ZM9.07444 48.0795C9.11561 48.1378 9.15684 48.1961 9.19815 48.2542C9.1567 48.1961 9.11546 48.1379 9.07444 48.0795ZM13.9867 44.6392L9.00091 47.9744C8.96778 47.9268 8.93478 47.879 8.90194 47.8312L8.4757 47.188C8.49699 47.2223 8.51823 47.2563 8.53945 47.29C5.66869 42.8941 4 37.6419 4 32C4 26.3025 5.70173 21.0024 8.62466 16.5803C8.64792 16.5455 8.67108 16.5106 8.69417 16.4757C8.79487 16.3248 8.897 16.1749 9.00054 16.0261L13.9973 19.3372L13.4457 20.1735L8.4578 16.8368C8.1357 17.3365 7.83004 17.8466 7.5413 18.3663L10.1846 19.7754L9.7122 20.6601L7.07 19.2474C6.80682 19.7638 6.55947 20.288 6.3283 20.8195L11.8713 23.1168L11.4874 24.0404L5.9456 21.7444C5.7306 22.2876 5.5358 22.8404 5.3539 23.4003L8.2204 24.2719L7.9287 25.2274L5.0668 24.3581C4.9086 24.9156 4.7716 25.4791 4.6464 26.0507L10.513 27.22L10.3157 28.1991L4.4491 27.0311C4.3451 27.5932 4.2613 28.1649 4.194 28.7366L7.1822 29.0247L7.0818 30.024L4.0948 29.7358C4.0428 30.3228 4.0192 30.8992 4.0074 31.4874L10.0074 31.4886V32.4878H4.0074C4.0192 33.076 4.0464 33.6642 4.0948 34.2406L7.0818 33.9417L7.1822 34.941L4.194 35.2398C4.2613 35.8233 4.3523 36.3973 4.4527 36.9689L10.3205 35.8009L10.5165 36.7799L4.6464 37.9493C4.7704 38.5245 4.9192 39.0891 5.0774 39.6501L7.9322 38.7831L8.224 39.7387L5.3645 40.6068C5.54364 41.1617 5.7402 41.7108 5.9539 42.2533L11.4803 39.9643L11.8642 40.8879L6.3354 43.1781C6.5669 43.7155 6.8196 44.2387 7.0854 44.7573L9.7252 43.3435L10.1965 44.2235L7.5555 45.6384C7.8365 46.151 8.1295 46.6506 8.4472 47.1396L13.4351 43.8029L13.9867 44.6392ZM12.3449 16.525L10.0385 14.6288C10.1023 14.5483 10.1666 14.4681 10.2312 14.3883C10.2974 14.3117 10.3587 14.2352 10.4198 14.159L10.4198 14.159L10.4435 14.1294C10.5203 14.0369 10.5977 13.9448 10.6757 13.8532L12.9815 15.749L12.3449 16.525ZM16.082 16.7848L11.8521 12.5561C12.0853 12.3145 12.3228 12.0772 12.5645 11.8441L16.7942 16.0726L16.082 16.7848ZM15.7465 12.984L13.8563 10.6731C13.9416 10.6005 14.0273 10.5283 14.1136 10.4567C14.1605 10.4191 14.2058 10.3814 14.2513 10.3435L14.255 10.3404L14.4101 10.2136C14.4818 10.1556 14.5538 10.098 14.6261 10.0407L16.5213 12.3474L15.7465 12.984ZM14.255 10.3404L14.1666 10.4127C14.2094 10.3773 14.2523 10.342 14.2953 10.3069L14.255 10.3404ZM19.3584 13.9714L16.0308 8.99727C16.3048 8.80673 16.5823 8.62095 16.8633 8.44006L20.1946 13.4198L19.3584 13.9714ZM24.3525 5.05714L24.3198 5.06642L23.3967 5.3482L24.2684 8.2207L25.2239 7.929L24.3525 5.05714ZM19.2332 7.07329C18.9369 7.2254 18.6435 7.38263 18.3534 7.54488L19.7683 10.1849L20.6483 9.7125L19.2332 7.07329ZM29.2016 4.13809C29.0531 4.15283 28.9049 4.16873 28.7571 4.18578L29.0565 7.167L30.0558 7.0666L29.7567 4.08856C29.5871 4.102 29.418 4.11695 29.2493 4.1334L29.2016 4.13809ZM31.5085 9.9922V4.00423C31.672 4.00141 31.8358 4 32 4C32.1712 4 32.342 4.00154 32.5125 4.0046V9.9922H31.5085ZM33.9759 7.0666L34.2631 4.09013C34.5979 4.11691 34.9311 4.14958 35.2625 4.18804L34.9751 7.1669L33.9759 7.0666ZM27.0275 59.5531L26.0484 59.3558L27.22 53.4727L28.1992 53.6687L27.0275 59.5531ZM24.3522 58.94L23.3967 58.6482L24.2683 55.7758L25.2239 56.0675L24.3522 58.94ZM20.8278 57.6763L23.1238 52.1334L24.0475 52.5173L21.7515 58.0603L20.8278 57.6763ZM44.7572 7.069L45.636 7.5402L44.2245 10.1848L43.3445 9.7123L44.7572 7.069ZM19.2427 56.9287L18.3639 56.4562L19.7801 53.8129L20.6601 54.2842L19.2427 56.9287ZM57.6762 20.8279L58.0601 21.7515L52.5171 24.0476L52.1332 23.124L57.6762 20.8279ZM58.9364 24.3559L56.064 25.2287L55.7722 24.2732L58.6447 23.4004L58.9364 24.3559ZM59.553 27.0276L53.6687 28.1992L53.4727 27.2201L59.3557 26.0484L59.553 27.0276ZM59.3605 37.9518L53.4773 36.78L53.6734 35.8009L59.5577 36.9725L59.3605 37.9517V37.9518ZM58.6447 40.6034L55.7722 39.7317L56.064 38.7762L58.9365 39.6479L58.6447 40.6034ZM5.98 21.6559L6.3249 20.8279C6.20587 21.1022 6.09089 21.3782 5.98 21.6559ZM56.4526 45.636L53.8034 44.2246L54.2746 43.3446L56.9239 44.7572L56.4526 45.636ZM21.7515 5.9435L24.0475 11.4877L23.1239 11.8715L20.8279 6.3285L21.7515 5.9435ZM27.0323 4.4447L28.2039 10.3278L27.2247 10.5251L26.0531 4.6407L27.0322 4.4447H27.0323ZM35.111 4.1765L35.1073 4.17616C34.8852 4.14914 34.6574 4.12573 34.4354 4.1128L35.1073 4.17616L35.111 4.1766V4.1765ZM4.1764 28.889L4.1127 29.5646C4.1257 29.3413 4.1493 29.1169 4.1764 28.889ZM28.8889 59.8237L28.8927 59.8241C29.1194 59.8511 29.3425 59.8745 29.5645 59.8874L28.8927 59.8241L28.8889 59.8236V59.8237Z" fill="white"/>
</g>
<defs>
<clipPath id="clip0_2280_12393">
<rect width="64" height="64" fill="white"/>
</clipPath>
</defs>
</svg>
