<svg width="140" height="20" viewBox="0 0 140 20" fill="none" xmlns="http://www.w3.org/2000/svg">
<path fill-rule="evenodd" clip-rule="evenodd" d="M96 0H100H104H108H112H116V4H112H108H104H100V8H104H108H112V12H108H104H100V16L104 16H108H112H116V20H112H108H104H100H96V16V12V8V4V0Z" fill="white"/>
<path fill-rule="evenodd" clip-rule="evenodd" d="M24 0H28H32H36H40H44V4H40H36V8V12V16H40H44V20H40H36H32H28H24V16H28H32V12V8V4H28H24V0Z" fill="white"/>
<path fill-rule="evenodd" clip-rule="evenodd" d="M52 0H48V4V8V12V16V20H52H56H60H64H68V16V12V8V4V0H64H60H56H52ZM60 4H64V8V12V16H60H56L52 16V12V8V4H56H60Z" fill="white"/>
<path fill-rule="evenodd" clip-rule="evenodd" d="M72 4V0H76H80H84H88H92V4V8V12V16V20H88V16V12V8V4H84V8V12V16V20H80V16V12V8V4H76V8V12V16V20H72V16V12V8V4Z" fill="white"/>
<path fill-rule="evenodd" clip-rule="evenodd" d="M120 0H124H128H132H136H140V4H136H132H128H124V8H128H132H136H140V12V16V20H136H132H128H124H120V16H124H128H132H136V12H132H128H124H120V8V4V0Z" fill="white"/>
<path fill-rule="evenodd" clip-rule="evenodd" d="M4 0H0V4V8V12V16V16V20H4H8H12H16H20V16V16V12V8V4H16V0H12H8H4ZM16 8H12H8H4V4H8H12H16V8ZM16 16H12H8H4V12H8H12H16V16Z" fill="white"/>
</svg>
